<?xml version="1.0" encoding="UTF-8"?>
<svg id="Layer_2" data-name="Layer 2" xmlns="http://www.w3.org/2000/svg" viewBox="0 0 491.71 500">
  <defs>
    <style>
      .cls-1 {
        fill: #007aff;
      }

      .cls-2 {
        fill: #ff9000;
      }
    </style>
  </defs>
  <g id="Layer_1-2" data-name="Layer 1">
    <g>
      <path class="cls-2" d="M350.4,354.54c-1.21,1.43-2.44,2.85-3.71,4.23-12.43,13.59-27.17,24.17-44.2,31.77-17.04,7.6-35.91,11.39-56.63,11.39s-38.91-3.8-55.94-11.39c-17.04-7.6-32-18.18-44.89-31.77-1.29-1.36-2.55-2.75-3.78-4.16-11.04-12.65-19.57-27.26-25.57-43.83-6.68-18.41-10.01-38.67-10.01-60.77s3.33-42.35,10.01-60.77c6.67-18.41,16.46-34.41,29.35-48,12.88-13.57,27.85-24.17,44.89-31.77,17.03-7.6,35.67-11.4,55.94-11.4s39.59,3.8,56.63,11.4c17.03,7.6,31.77,18.19,44.2,31.77,1.27,1.38,2.5,2.8,3.71,4.23l73.1-73.1c-.4-.41-.79-.82-1.19-1.23-22.34-22.55-48.34-40.06-78.04-52.49C314.57,6.22,281.77,0,245.86,0s-68.14,6.22-98.07,18.65c-29.93,12.43-56.06,29.81-78.38,52.14-22.34,22.34-39.48,48.69-51.45,79.07C5.98,180.25,0,213.64,0,250s5.98,69.18,17.96,99.79c11.72,29.99,28.42,55.99,50.09,78.02.46.46.9.94,1.36,1.4,22.33,22.34,48.45,39.71,78.38,52.14,29.92,12.43,62.85,18.65,98.76,18.65s68.02-6.22,97.72-18.65c29.7-12.43,55.7-29.92,78.04-52.49.4-.41.79-.82,1.19-1.23l-73.1-73.1Z"/>
      <path class="cls-1" d="M376.04,189.23c7.13,18.42,10.7,38.67,10.7,60.77s-3.57,42.36-10.7,60.77c-6.42,16.54-14.96,31.13-25.64,43.77l73.1,73.1c21.74-22.29,38.5-48.35,50.26-78.19,11.97-30.39,17.96-63.54,17.96-99.45s-5.99-69.06-17.96-99.45c-11.76-29.84-28.52-55.89-50.26-78.19l-73.1,73.1c10.68,12.64,19.23,27.23,25.64,43.76Z"/>
    </g>
  </g>
</svg>